<?xml version="1.0" encoding="UTF-8" standalone="no"?>
<svg
   viewBox="0 0 24 24"
   version="1.1"
   id="svg4"
   sodipodi:docname="check-decagram-outline.svg"
   inkscape:version="1.2.2 (b0a8486541, 2022-12-01)"
   xmlns:inkscape="http://www.inkscape.org/namespaces/inkscape"
   xmlns:sodipodi="http://sodipodi.sourceforge.net/DTD/sodipodi-0.dtd"
   xmlns="http://www.w3.org/2000/svg"
   xmlns:svg="http://www.w3.org/2000/svg">
  <defs
     id="defs8" />
  <sodipodi:namedview
     id="namedview6"
     pagecolor="#ffffff"
     bordercolor="#000000"
     borderopacity="0.25"
     inkscape:showpageshadow="2"
     inkscape:pageopacity="0.0"
     inkscape:pagecheckerboard="0"
     inkscape:deskcolor="#d1d1d1"
     showgrid="false"
     inkscape:zoom="36.25"
     inkscape:cx="10.951724"
     inkscape:cy="12.096552"
     inkscape:window-width="1920"
     inkscape:window-height="1048"
     inkscape:window-x="1080"
     inkscape:window-y="428"
     inkscape:window-maximized="1"
     inkscape:current-layer="svg4" />
  <path
     d="M23 12L20.6 9.2L20.9 5.5L17.3 4.7L15.4 1.5L12 3L8.6 1.5L6.7 4.7L3.1 5.5L3.4 9.2L1 12L3.4 14.8L3.1 18.5L6.7 19.3L8.6 22.5L12 21L15.4 22.5L17.3 19.3L20.9 18.5L20.6 14.8L23 12M18.7 16.9L16 17.5L14.6 19.9L12 18.8L9.4 19.9L8 17.5L5.3 16.9L5.5 14.1L3.7 12L5.5 9.9L5.3 7.1L8 6.5L9.4 4.1L12 5.2L14.6 4.1L16 6.5L18.7 7.1L18.5 9.9L20.3 12L18.5 14.1L18.7 16.9M16.6 7.6L18 9L10 17L6 13L7.4 11.6L10 14.2L16.6 7.6Z"
     id="path2"
     style="fill:#ff9253;fill-opacity:1" />
</svg>
